<?xml version="1.0" encoding="utf-8"?><!-- Uploaded to: SVG Repo, www.svgrepo.com, Generator: SVG Repo Mixer Tools -->
<svg fill="#000000" width="800px" height="800px" viewBox="0 0 24 24" id="curve-arrow-left-5" data-name="Flat Line" xmlns="http://www.w3.org/2000/svg" class="icon flat-line"><path id="secondary" d="M3.43,15.53,10,20V17c5.35-.19,7.06-4.58,7.06-9,0,0-2.45,4.27-7.06,4.48v-3L3.43,14A1,1,0,0,0,3.43,15.53Z" style="fill: rgb(44, 169, 188); stroke-width: 2;"></path><path id="primary" d="M3,9V5A1,1,0,0,1,4,4H20a1,1,0,0,1,1,1V19a1,1,0,0,1-1,1H15" style="fill: none; stroke: rgb(0, 0, 0); stroke-linecap: round; stroke-linejoin: round; stroke-width: 2;"></path><path id="primary-2" data-name="primary" d="M3.43,15.53,10,20V17c5.35-.19,7.06-4.58,7.06-9,0,0-2.45,4.27-7.06,4.48v-3L3.43,14A1,1,0,0,0,3.43,15.53Z" style="fill: none; stroke: rgb(0, 0, 0); stroke-linecap: round; stroke-linejoin: round; stroke-width: 2;"></path></svg>