<?xml version="1.0" encoding="utf-8"?><!-- Uploaded to: SVG Repo, www.svgrepo.com, Generator: SVG Repo Mixer Tools -->
<svg fill="#000000" width="800px" height="800px" viewBox="0 0 24 24" id="push-pin" data-name="Flat Line" xmlns="http://www.w3.org/2000/svg" class="icon flat-line"><path id="secondary" d="M16.89,11.45A2,2,0,0,1,18,13.24V15H6V13.24a2,2,0,0,1,1.11-1.79L8,11,9,3h6l1,8Z" style="fill: rgb(44, 169, 188); stroke-width: 2;"></path><path id="primary" d="M12,15v6m4-10L15,3H9L8,11l-.89.45A2,2,0,0,0,6,13.24V15H18V13.24a2,2,0,0,0-1.11-1.79ZM7,3H17" style="fill: none; stroke: rgb(0, 0, 0); stroke-linecap: round; stroke-linejoin: round; stroke-width: 2;"></path></svg>