<?xml version="1.0" encoding="utf-8"?><!-- Uploaded to: SVG Repo, www.svgrepo.com, Generator: SVG Repo Mixer Tools -->
<svg width="800px" height="800px" viewBox="0 0 1024 1024" xmlns="http://www.w3.org/2000/svg">
   <defs>
      <mask id="hole">
        <circle r="511" cx="512" cy="512" width='1024' style="fill:#ffffff;"/>
        <path style="fill:#000000;" transform="translate(-552 -552) scale(2.1 2.1)" d="M737.9 768H285.8c-16.5 0-29.9-13.4-30-30V286c0-16.5 13.4-29.9 30-30h452.1c16.5 0 29.9 13.4 30 30v452c0 16.6-13.4 30-30 30zm-228-467c-115.3 1-208.3 95.6-209.1 211-.9 117.5 93.5 210.9 211 211 115.5.1 209-96 211-211 2.1-118.9-94-212.1-212.9-211zm-48.2 139.2-19 46.1h139.5l-19-46.1L705 512l-141.7 71.8 19-46.1H442.7l18.8 46.1-142-71.8 142.2-71.8z"/>
      </mask>
      <mask id="hole1">
        <circle r="511" cx="512" cy="512" style="fill:#ffffff; stroke:#ffffff; stroke-width: 3;"/>
        <path style="fill:#000000;" d="M737.9 768H285.8c-16.5 0-29.9-13.4-30-30V286c0-16.5 13.4-29.9 30-30h452.1c16.5 0 29.9 13.4 30 30v452c0 16.6-13.4 30-30 30zm-228-467c-115.3 1-208.3 95.6-209.1 211-.9 117.5 93.5 210.9 211 211 115.5.1 209-96 211-211 2.1-118.9-94-212.1-212.9-211zm-48.2"/>
      </mask>
      <mask id="hole2">
        <rect x="0" y="0" height="1024" width="1024" style="fill:#ffffff;"/>
        <circle r="512" cx="512" cy="512" style="fill:#000000; stroke:#000000; stroke-width: 3;"/>
      </mask>
    </defs>
    <circle r="511" cx="512" cy="512" style="fill:#2ca9bc;" mask="url(#hole)"/>
    <path style="fill:#000000;" transform="translate(-552 -552) scale(2.1 2.1)" mask="url(#hole2)" d="M737.9 768H285.8c-16.5 0-29.9-13.4-30-30V286c0-16.5 13.4-29.9 30-30h452.1c16.5 0 29.9 13.4 30 30v452c0 16.6-13.4 30-30 30zm-228-467c-115.3 1-208.3 95.6-209.1 211-.9 117.5 93.5 210.9 211 211 115.5.1 209-96 211-211 2.1-118.9-94-212.1-212.9-211zm-48.2 139.2-19 46.1h139.5l-19-46.1L705 512l-141.7 71.8 19-46.1H442.7l18.8 46.1-142-71.8 142.2-71.8z"/>-->
</svg>