<?xml version="1.0" encoding="utf-8"?><!-- Uploaded to: SVG Repo, www.svgrepo.com, Generator: SVG Repo Mixer Tools -->
<svg fill="#000000" width="800px" height="800px" viewBox="0 0 24 24" id="wireless-mouse" data-name="Flat Line" xmlns="http://www.w3.org/2000/svg" class="icon flat-line"><path id="secondary" d="M16.28,3.89A3,3,0,0,1,18,6.61V15a6,6,0,0,1-6,6h0a6,6,0,0,1-6-6V6.61A3,3,0,0,1,7.72,3.89,10.14,10.14,0,0,1,12,3,10.14,10.14,0,0,1,16.28,3.89Z" style="fill: rgb(44, 169, 188); stroke-width: 2;"></path><path id="primary" d="M12,7V9m0-6a10.14,10.14,0,0,0-4.28.89A3,3,0,0,0,6,6.61V15a6,6,0,0,0,6,6h0a6,6,0,0,0,6-6V6.61a3,3,0,0,0-1.72-2.72A10.14,10.14,0,0,0,12,3Z" style="fill: none; stroke: rgb(0, 0, 0); stroke-linecap: round; stroke-linejoin: round; stroke-width: 2;"></path></svg>